<?xml version="1.0" encoding="UTF-8"?>
<svg xmlns="http://www.w3.org/2000/svg" viewBox="0 0 400 400" role="img" aria-label="Stylized portrait">
  <defs>
    <clipPath id="head-clip">
      <circle cx="200" cy="200" r="196" />
    </clipPath>
  </defs>

  <g clip-path="url(#head-clip)" fill="#2A2D33" fill-rule="evenodd" stroke="none">
    <path d="M 199.526 17.664 C 197.341 18.451, 194.866 19.691, 194.026 20.420 C 192.415 21.819, 187.820 23.892, 182 25.846 C 179.084 26.825, 178.315 26.769, 177.390 25.511 C 175.960 23.566, 174.848 23.608, 171.099 25.750 C 168.124 27.450, 167.912 27.434, 163.654 25.183 C 155.595 20.922, 135.778 21.193, 141.647 25.484 C 143.365 26.740, 143.330 26.915, 140.979 28.871 C 139.616 30.006, 136.925 31.226, 135 31.584 C 133.075 31.941, 130.825 32.994, 130 33.924 C 128.085 36.083, 123 38.302, 123 36.979 C 123 36.440, 122.344 36, 121.542 36 C 119.563 36, 116.285 47.392, 115.404 57.330 C 114.808 64.052, 114.409 65.274, 112.584 65.968 C 111.414 66.413, 109.818 67.972, 109.036 69.433 C 108.254 70.893, 105.901 73.052, 103.807 74.228 C 99.400 76.706, 98.951 78, 102.500 78 C 105.640 78, 105.753 79.763, 102.688 80.928 C 99.030 82.319, 94.161 88.568, 93.494 92.729 C 93.161 94.803, 92.239 97.978, 91.444 99.784 C 90.650 101.590, 90 103.750, 90 104.584 C 90 105.417, 89.265 107.521, 88.366 109.259 C 85.860 114.106, 84.776 126.351, 86.458 130.829 C 87.216 132.848, 88.050 138.130, 88.311 142.566 C 88.682 148.876, 89.431 151.925, 91.750 156.566 C 93.381 159.830, 95.024 164.506, 95.402 166.958 C 95.781 169.409, 96.946 173.349, 97.991 175.714 C 99.713 179.606, 99.756 180.339, 98.446 183.474 C 96.005 189.317, 97.147 202.172, 100.313 204.487 C 101.096 205.060, 101.747 206.872, 101.759 208.514 C 101.771 210.156, 102.335 214.650, 103.013 218.500 C 103.691 222.350, 104.302 228.948, 104.373 233.162 C 104.443 237.376, 104.838 241.164, 105.250 241.579 C 105.662 241.994, 106 243.155, 106 244.158 C 106 245.162, 106.920 246.549, 108.045 247.242 C 109.169 247.934, 111.496 250.750, 113.216 253.500 C 114.936 256.250, 116.948 259.005, 117.689 259.623 C 118.459 260.266, 118.748 261.494, 118.364 262.495 C 117.760 264.067, 117.513 264.005, 115.915 261.887 C 113.015 258.043, 112.573 260.440, 114.466 269.741 C 116.319 278.842, 118.151 283, 120.307 283 C 122.164 283, 125 288.346, 125 291.845 C 125 293.515, 125.468 295.171, 126.041 295.525 C 127.914 296.683, 132.371 304.457, 132.240 306.338 C 132.169 307.349, 130.754 310.784, 129.095 313.971 L 126.079 319.766 129.485 330.633 C 131.386 336.700, 133.354 345.763, 133.939 351.151 C 135.167 362.466, 135.464 363.419, 138.353 365.312 C 139.555 366.099, 141.588 369.164, 142.872 372.122 C 144.155 375.080, 146.284 379.872, 147.603 382.772 C 148.921 385.672, 150 388.513, 150 389.087 C 150 389.660, 150.955 392.350, 152.123 395.065 C 154.506 400.603, 157 401.638, 157 397.089 C 157 395.116, 157.918 393.405, 159.849 391.780 C 163.408 388.786, 164.613 380.599, 162.991 370.443 C 161.529 361.292, 162.286 360.563, 173.393 360.440 C 183.620 360.327, 187.333 358.925, 189.498 354.363 C 191.580 349.975, 191.184 348.909, 186.940 347.480 C 179.318 344.913, 184.054 340.416, 196.500 338.401 C 200.350 337.778, 206.109 336.532, 209.299 335.634 C 212.488 334.735, 216.375 334, 217.937 334 C 221.063 334, 232.785 328.885, 237.500 325.462 C 246.167 319.171, 250.497 318.552, 249.658 323.722 C 247.658 336.045, 220.888 370.133, 203 383.132 C 194.457 389.341, 188.956 393, 188.165 393 C 187.052 393, 184.475 396.019, 183.683 398.250 C 183.134 399.799, 183.798 400, 189.465 400 L 195.867 400 204.184 392.152 C 211.601 385.153, 215.716 382, 217.434 382 C 217.745 382, 218 383.125, 218 384.500 C 218 385.875, 218.406 387, 218.903 387 C 220.001 387, 226.174 377.832, 228.331 373 C 229.190 371.075, 231.829 366.492, 234.196 362.816 C 244.286 347.146, 251 336.088, 251 335.142 C 251 334.584, 253.629 331.407, 256.842 328.082 C 265.466 319.158, 267.776 309.850, 264.654 296.605 C 263.417 291.358, 260.601 288.446, 259.096 290.857 C 258.565 291.709, 257.460 291.963, 256.125 291.540 C 254.344 290.974, 254 291.271, 254 293.374 C 254 297.798, 253.236 297.698, 241.099 291.689 C 237.313 289.814, 236.496 287.759, 238.099 284.139 C 239.055 281.978, 239.973 281.170, 240.999 281.585 C 241.825 281.919, 243.028 282.409, 243.673 282.673 C 244.319 282.938, 245.398 282.108, 246.073 280.828 C 246.748 279.547, 247.795 278.175, 248.400 277.778 C 249.184 277.264, 249.133 276.547, 248.221 275.278 C 247.517 274.300, 246.678 272.712, 246.354 271.750 C 245.428 268.992, 242 269.526, 242 272.429 C 242 277.310, 237.156 279.695, 235.252 275.750 C 232.780 270.625, 232.971 268.906, 236.135 267.803 C 238.136 267.105, 238.937 266.279, 238.561 265.299 C 238.253 264.495, 238 262.513, 238 260.896 C 238 257.580, 232.033 250.371, 227.306 247.977 C 218.283 243.406, 209.903 234.734, 210.693 230.785 C 211.382 227.338, 208.774 224, 205.392 224 C 202.423 224, 198.248 225.911, 197.616 227.559 C 197.098 228.908, 202.567 231.386, 204.046 230.472 C 204.495 230.194, 205.147 230.428, 205.495 230.992 C 206.290 232.278, 197.334 236.328, 194.110 236.139 C 192.796 236.062, 191.136 236.787, 190.422 237.750 C 189.184 239.417, 189.037 239.416, 187.343 237.747 C 185.640 236.067, 185.658 235.928, 187.783 234.439 L 190.002 232.885 186.751 228.839 C 181.097 221.802, 175.870 220.264, 172.151 224.541 C 168.218 229.065, 166.221 224.531, 170.020 219.702 C 171.131 218.289, 173.021 216.991, 174.219 216.817 C 178.855 216.143, 182.608 203.808, 184.508 183 C 184.835 179.425, 185.588 174.853, 186.182 172.839 C 187.780 167.418, 186.606 164.350, 182.042 162.021 C 179.882 160.920, 177.431 160.281, 176.593 160.603 C 175.756 160.924, 173.693 160.206, 172.009 159.007 C 170.205 157.722, 165.568 156.217, 160.724 155.344 C 156.201 154.528, 150.824 153.374, 148.776 152.779 C 141.156 150.565, 138.386 144.807, 144 142.850 C 145.831 142.212, 147 141.105, 147 140.009 C 147 139.022, 147.708 137.942, 148.574 137.610 C 151.403 136.524, 149.771 133.575, 146.242 133.397 C 144.459 133.307, 143 133.631, 143 134.117 C 143 134.603, 141.896 135, 140.547 135 C 137.701 135, 133 136.949, 133 138.129 C 133 138.574, 132.325 138.678, 131.500 138.362 C 130.671 138.044, 130 136.559, 130 135.042 C 130 133.533, 129.521 130.924, 128.936 129.245 C 127.201 124.269, 129.250 118.746, 134.270 114.870 C 136.597 113.073, 140.436 109.862, 142.802 107.734 C 146.366 104.527, 147.592 103.971, 149.956 104.490 C 151.576 104.846, 153.092 104.660, 153.464 104.059 C 154.254 102.780, 171.262 102.618, 173.764 103.866 C 179.615 106.784, 182.279 106.991, 185.819 104.803 L 189.300 102.652 191.060 104.826 C 192.860 107.049, 195.459 107.684, 196.417 106.135 C 198.375 102.966, 209.699 104.705, 216.154 109.166 C 220.645 112.269, 229.265 111.680, 235.214 107.863 C 240.700 104.342, 243.421 104.723, 247.212 109.543 C 249.617 112.600, 256.420 116.579, 260.810 117.495 C 264.661 118.298, 266 120.893, 266 127.551 C 266 136.012, 270.332 150.884, 274.223 155.780 L 277.135 159.445 276.430 175.201 C 275.762 190.094, 275.827 190.992, 277.612 191.602 C 278.650 191.956, 280.478 193.392, 281.673 194.793 L 283.846 197.339 284.564 193.510 C 285.140 190.439, 284.928 189.421, 283.495 188.373 C 281.618 187, 281.752 186.612, 289.522 171 C 290.207 169.625, 291.266 166.128, 291.877 163.228 C 292.488 160.329, 294.228 155.604, 295.744 152.728 C 298.324 147.835, 298.497 146.721, 298.461 135.328 C 298.439 128.614, 297.927 122.112, 297.318 120.828 C 293.740 113.280, 292.053 107.641, 293.023 106.472 C 293.590 105.789, 294.119 99.891, 294.198 93.365 C 294.361 79.858, 292.081 69.564, 288.500 67.644 C 287.400 67.054, 284.700 65.378, 282.500 63.920 C 280.300 62.462, 277.499 60.957, 276.276 60.575 C 270.596 58.804, 268.320 51.417, 272.187 47.301 C 275.960 43.285, 273.235 42.306, 253 40.409 C 249.081 40.041, 245.424 39.045, 243.790 37.900 C 242.207 36.789, 239.392 36, 237.016 36 C 233.556 36, 232.803 35.612, 231.960 33.395 C 231.150 31.263, 230.521 30.903, 228.497 31.411 C 227.137 31.753, 225.231 31.630, 224.262 31.138 C 219.644 28.795, 214.747 27, 212.975 27 C 211.898 27, 210.455 26.100, 209.768 25 C 209.081 23.900, 207.727 23, 206.759 23 C 204.956 23, 204.643 22.174, 204.961 18.250 C 205.167 15.708, 205.006 15.691, 199.526 17.664 M 98.413 88.321 C 96.929 89.598, 95.906 91.219, 96.141 91.923 C 96.425 92.776, 98.006 92.002, 100.878 89.602 C 104.327 86.720, 104.782 86, 103.150 86 C 102.029 86, 99.897 87.045, 98.413 88.321 M 123.216 146.732 C 121.084 147.492, 108.013 160.498, 107.819 162.053 C 107.720 162.849, 107.572 167.775, 107.491 173 C 107.410 178.225, 106.980 188.380, 106.536 195.566 C 105.505 212.224, 106.376 220.802, 109.577 225.518 C 110.910 227.482, 112 229.689, 112 230.422 C 112 231.155, 112.675 232.315, 113.500 233 C 114.325 233.685, 115 235.447, 115 236.916 C 115 239.066, 115.633 239.773, 118.250 240.543 C 120.759 241.282, 121.614 242.171, 122 244.443 C 122.593 247.936, 124.366 248.443, 124.820 245.250 C 125.273 242.056, 126.388 242.422, 130.877 247.234 C 134.777 251.415, 134.852 251.444, 136.895 249.595 C 138.034 248.565, 140.717 247.597, 142.858 247.445 C 147.022 247.148, 151.960 244.920, 160.354 239.550 C 167.748 234.820, 168.728 233.462, 166.512 231.013 C 163.652 227.853, 164.879 219.815, 169.338 212.500 C 173.447 205.758, 173.684 204.244, 171.386 199.400 C 169.900 196.269, 169.900 195.802, 171.386 193.534 C 174.024 189.508, 173.488 186.010, 170.033 184.706 C 167.755 183.847, 167.183 183.112, 167.572 181.543 C 167.912 180.167, 167.374 179.065, 165.921 178.168 C 163.254 176.521, 161.617 177.837, 161.445 181.768 C 161.312 184.798, 160.071 185.150, 145.500 186.296 C 138.961 186.811, 132.796 188.903, 131.462 191.062 C 130.826 192.090, 124.991 186.175, 125.015 184.527 C 125.083 179.993, 136.558 174.821, 149.500 173.492 C 160.244 172.388, 161.442 172.013, 159.721 170.292 C 158.813 169.384, 154.825 168.419, 149.622 167.847 C 141.210 166.923, 140.920 166.963, 136.264 169.701 C 122.336 177.892, 118.403 174.842, 127.328 162.770 C 129.221 160.210, 129.242 159.925, 127.673 158.191 C 126.753 157.175, 126 155.645, 126 154.793 C 126 153.941, 124.987 152.526, 123.750 151.649 C 121.544 150.085, 121.538 150.024, 123.427 148.537 C 125.471 146.929, 125.358 145.968, 123.216 146.732 M 234.134 156.110 C 230.633 156.637, 226.493 157.728, 224.934 158.534 C 223.375 159.340, 221.240 160, 220.189 160 C 219.139 160, 216.586 161.149, 214.518 162.553 C 211.835 164.373, 209.989 164.937, 208.084 164.519 C 206.048 164.071, 204.846 164.535, 203.026 166.472 L 200.639 169.013 202.820 172.893 C 204.019 175.026, 205 177.499, 205 178.386 C 205 179.333, 205.826 180, 207 180 C 208.486 180, 209 180.667, 209 182.594 C 209 184.288, 209.650 185.357, 210.874 185.677 C 211.904 185.947, 213.718 187.480, 214.904 189.084 C 217.649 192.797, 222.304 193.244, 221.852 189.750 C 221.693 188.512, 221.900 186.957, 222.314 186.293 C 222.794 185.520, 221.925 184.496, 219.903 183.450 C 216.809 181.850, 216.781 181.774, 218.620 179.938 C 222.069 176.495, 225.234 176.993, 226.440 181.168 C 227.768 185.763, 227.567 185.608, 233.250 186.433 C 237.520 187.053, 238 186.927, 238 185.184 C 238 182.253, 240.608 180.430, 242.525 182.021 C 243.891 183.155, 243.888 183.466, 242.499 185.001 C 241.059 186.592, 241.291 186.761, 245.724 187.353 C 248.351 187.705, 251.352 188.106, 252.392 188.246 C 255.741 188.696, 255.287 186.051, 251.336 182.101 C 248.213 178.978, 245.551 177.643, 237.199 175.014 C 223.818 170.801, 224.362 168.330, 238.721 168.100 C 243.343 168.026, 246.396 168.643, 250.596 170.500 C 260.675 174.958, 262.025 173.760, 256.750 165.037 C 251.198 155.856, 246.951 154.179, 234.134 156.110 M 143.011 179.487 C 141.286 181.565, 142.348 183.619, 145.564 184.427 C 149.296 185.363, 150.732 183.736, 149.011 180.520 C 147.500 177.697, 144.872 177.245, 143.011 179.487 M 273.623 233.540 C 272.624 236.144, 272.905 245.823, 274 246.500 C 274.550 246.840, 275.063 246.079, 275.140 244.809 C 275.547 238.085, 275.800 235.368, 276.132 234.125 C 276.663 232.141, 274.365 231.605, 273.623 233.540 M 188.685 256.823 C 186.786 257.188, 186.468 258.553, 188.053 259.533 C 189.813 260.621, 201.144 258.931, 200.709 257.646 C 200.349 256.582, 192.677 256.057, 188.685 256.823 M 269.214 259.563 C 267.502 260.762, 267 262.106, 267 265.489 C 267 268.987, 266.599 269.993, 265 270.500 C 262.834 271.187, 262.069 277.307, 264 278.500 C 264.550 278.840, 265 279.965, 265 281 C 265 282.035, 265.518 283.202, 266.152 283.594 C 267.881 284.662, 269.997 281.087, 270.021 277.059 C 270.032 275.101, 270.660 270.575, 271.415 267 C 273.046 259.283, 272.456 257.292, 269.214 259.563 M 248 264.193 C 248 264.926, 248.998 265.970, 250.217 266.513 C 251.437 267.056, 252.687 268.592, 252.995 269.926 C 253.664 272.824, 256.032 273.960, 255.927 271.333 C 255.737 266.578, 248 259.609, 248 264.193 M 176.283 264.825 C 175.560 265.272, 176.519 266.974, 178.978 269.611 C 182.459 273.342, 183.399 273.779, 189.648 274.572 C 200.731 275.977, 206.315 275.602, 210.429 273.175 C 212.456 271.979, 214.764 271, 215.557 271 C 216.351 271, 217 270.309, 217 269.465 C 217 268.257, 216.588 268.150, 215.066 268.965 C 211.940 270.638, 208.292 270.225, 207.746 268.136 C 207.101 265.669, 203.004 264.985, 189.888 265.152 C 184.051 265.227, 178.854 265.028, 178.340 264.710 C 177.825 264.392, 176.900 264.444, 176.283 264.825 M 219.655 272.829 C 218.745 273.835, 218 275.324, 218 276.138 C 218 278.224, 215.571 281.299, 213.707 281.572 C 210.424 282.054, 206.954 285.438, 207.348 287.774 C 207.559 289.024, 207.342 290.289, 206.866 290.583 C 206.390 290.877, 206 292.900, 206 295.078 C 206 298.755, 205.829 298.995, 203.609 298.438 C 202.294 298.108, 200.913 298.332, 200.540 298.935 C 199.375 300.821, 197.962 298.998, 198.605 296.439 C 199.235 293.928, 196.845 292.823, 195.499 295.002 C 195.144 295.575, 193.217 295.739, 190.997 295.384 C 187.427 294.813, 186.830 295.073, 183.562 298.631 C 179.584 302.963, 178.893 305.486, 181.950 304.516 C 183.023 304.175, 185.321 304.632, 187.058 305.530 C 188.794 306.428, 191.240 306.905, 192.493 306.591 C 193.873 306.245, 195.247 306.592, 195.977 307.473 C 197.032 308.744, 197.463 308.743, 199.410 307.467 C 201.626 306.015, 204.686 305.583, 208.500 306.185 C 210.111 306.439, 210.518 305.916, 210.591 303.500 C 210.767 297.674, 211.986 295.747, 215.103 296.371 C 216.654 296.681, 218.191 296.499, 218.520 295.967 C 218.849 295.435, 219.936 295, 220.937 295 C 223.676 295, 225.541 292.357, 224.060 290.573 C 222.138 288.257, 224.702 281, 227.443 281 C 228.745 281, 230.256 279.837, 231.342 277.998 C 233.082 275.052, 232.808 272.383, 230.887 273.570 C 230.351 273.901, 228.823 273.459, 227.491 272.586 C 224.306 270.499, 221.690 270.580, 219.655 272.829 M 160.405 288.895 C 162.515 291.226, 167.657 292.118, 169.084 290.399 C 170.517 288.672, 167.235 287, 162.411 287 C 158.822 287, 158.751 287.067, 160.405 288.895 M 309 321.400 C 309 328.436, 323.065 353.500, 327.014 353.500 C 328.899 353.500, 329.706 341.556, 327.963 339.455 C 327.337 338.702, 326.698 336.153, 326.542 333.793 C 326.386 331.432, 326.200 329.242, 326.129 328.927 C 325.862 327.738, 312.240 319, 310.656 319 C 309.575 319, 309 319.833, 309 321.400 M 356.570 357.886 C 355.894 358.980, 359.675 360.062, 361.596 359.325 C 362.368 359.028, 363 358.384, 363 357.893 C 363 356.733, 357.287 356.727, 356.570 357.886 M 96.220 365.133 C 90.790 367.220, 88.637 369.460, 87.459 374.250 C 86.905 376.504, 87.118 377.002, 88.642 377.011 C 89.664 377.017, 92.188 377.301, 94.250 377.642 C 97.292 378.145, 98 377.957, 98 376.646 C 98 375.757, 99.350 372.836, 101 370.154 C 105.787 362.374, 105.148 361.703, 96.220 365.133 M 342.250 363.718 C 341.563 363.965, 341 365.217, 341 366.500 C 341 367.876, 339.905 369.631, 338.330 370.778 C 335.309 372.979, 334.698 379.861, 336.334 393.250 L 337.159 400 354.080 400 C 363.756 400, 371 399.605, 371 399.077 C 371 398.569, 369.978 396.881, 368.728 395.327 C 367.478 393.772, 365.654 390.746, 364.674 388.603 C 363.694 386.460, 361.679 383.427, 360.196 381.863 C 358.491 380.065, 357.316 377.511, 357 374.912 C 356.542 371.153, 356.058 370.571, 351.284 368.053 C 348.416 366.540, 345.491 364.844, 344.784 364.285 C 344.078 363.726, 342.938 363.471, 342.250 363.718 M 312.185 371.989 C 305.726 373.518, 300.726 380.896, 299.012 391.424 C 297.639 399.861, 297.787 400, 308.107 400 C 315.908 400, 317.001 399.785, 317.005 398.250 C 317.007 397.288, 318.807 390.973, 321.005 384.218 C 323.202 377.463, 325 371.725, 325 371.468 C 325 370.742, 315.888 371.113, 312.185 371.989 M 214 398.500 C 212.928 399.792, 213.327 400, 216.878 400 C 221.022 400, 222.363 398.737, 219.418 397.607 C 216.889 396.636, 215.334 396.893, 214 398.500"/>
  </g>

  <circle cx="200" cy="200" r="196"
          fill="none" stroke="#DCD6C8" stroke-width="2" />
</svg>
